<svg width="394" height="794" viewBox="0 0 394 794" fill="none" xmlns="http://www.w3.org/2000/svg">
<path fill-rule="evenodd" clip-rule="evenodd" d="M53 0C27.5949 0 7 20.5949 7 46V748C7 773.405 27.5949 794 53 794H341C366.405 794 387 773.405 387 748V46C387 20.5949 366.405 0 341 0H53ZM56 11C36.1177 11 20 27.1177 20 47V747C20 766.882 36.1178 783 56 783H338C357.882 783 374 766.882 374 747V47C374 27.1178 357.882 11 338 11H56Z" fill="#333240"/>
<path d="M0 131C0 128.791 1.79086 127 4 127H7V190H4C1.79086 190 0 188.209 0 186V131Z" fill="#333240"/>
<path d="M0 208C0 205.791 1.79086 204 4 204H7V267H4C1.79086 267 0 265.209 0 263V208Z" fill="#333240"/>
<path d="M394 220C394 222.209 392.209 224 390 224H387V127H390C392.209 127 394 128.791 394 131V220Z" fill="#333240"/>
</svg>
