<svg width="827" height="287" viewBox="0 0 827 287" fill="none" xmlns="http://www.w3.org/2000/svg">
<rect x="659.5" y="2.5" width="165" height="165" stroke="#FF0000" stroke-width="5"/>
<path d="M657 86.6888H827M742.937 2.25165L742.937 170" stroke="#FF0000" stroke-width="3" stroke-dasharray="6 6"/>
<path d="M725.2 91.4C728.267 90.4667 730.734 90.1333 732.6 90.4C734.467 90.5333 736.8 91.2 739.6 92.4C741.333 93.3333 742.934 94.4 744.4 95.6C745.867 96.6667 746.934 97.7333 747.6 98.8C748.267 99.7333 748.4 100.4 748 100.8C747.6 101.467 747.4 102.667 747.4 104.4C747.4 105.467 746.867 106.8 745.8 108.4C744.734 110 743.667 111.067 742.6 111.6C741.667 112.133 740.067 112.067 737.8 111.4C735.534 110.6 733.734 109.667 732.4 108.6C731.334 107.8 729.4 105.667 726.6 102.2C723.933 98.6 722.267 96.2667 721.6 95.2C721.067 94 720.934 93.2667 721.2 93C721.6 92.6 722.934 92.0667 725.2 91.4ZM682.2 85.8C682.067 84.7333 682.667 83.8667 684 83.2C685.334 82.4 687.867 82.1333 691.6 82.4C696.134 82.6667 699.067 83.8 700.4 85.8C701.734 87.8 702.4 92.3333 702.4 99.4C702.4 103.133 702.267 107.2 702 111.6L701.6 118.4L708.8 117.8C713.867 117.533 716.867 117 717.8 116.2C718.734 115.267 720.667 115 723.6 115.4C726.667 115.667 730.334 115.8 734.6 115.8C737.534 115.667 739.4 115.733 740.2 116C741 116.267 742.134 117.067 743.6 118.4C744.8 119.6 745.534 120.6 745.8 121.4C746.2 122.067 746.4 123.267 746.4 125C746.4 130.2 744.133 133.067 739.6 133.6C737.733 133.867 734.4 133.733 729.6 133.2C724.8 132.533 720.534 131.867 716.8 131.2C714.133 130.533 710.8 130.2 706.8 130.2C702.8 130.2 700.6 130.533 700.2 131.2C699.8 131.867 699.534 134.867 699.4 140.2C699.4 145.533 699.2 150.933 698.8 156.4C698.134 164.4 698.534 168.4 700 168.4C700.8 168.4 703.667 165.867 708.6 160.8C713.534 155.6 716.734 151.733 718.2 149.2C719.934 146.133 720.8 144.4 720.8 144C720.8 143.467 721.2 143 722 142.6C722.934 142.067 723.734 141.867 724.4 142C726.8 142.533 729.667 143.867 733 146C736.334 148 738.667 149.867 740 151.6C740.8 153.067 740.934 154.867 740.4 157C739.867 159 739 160.333 737.8 161C736.734 161.533 735.2 162.6 733.2 164.2C731.2 165.8 728.333 167.6 724.6 169.6L715.2 174.8C712.134 176.4 710.4 177.4 710 177.8C709.734 178.2 710.134 178.867 711.2 179.8C714.934 183.267 722.4 187.667 733.6 193C741.334 196.733 745.6 198.8 746.4 199.2C751.067 201.733 754 203 755.2 203C756.4 203 759.2 204.2 763.6 206.6C768 209 770.6 210.2 771.4 210.2C773.4 210.2 775.133 211.733 776.6 214.8C777.133 215.6 777.334 216.133 777.2 216.4C777.2 216.667 776.734 217 775.8 217.4C774.333 217.933 773.4 218.8 773 220C772.734 221.067 772.334 221.267 771.8 220.6C771.4 219.8 770.6 219.6 769.4 220C763.8 221.333 759.667 222.6 757 223.8C754.6 225 752.934 225.933 752 226.6C751.467 227.267 750.333 227.6 748.6 227.6C746.867 227.6 745.334 227.267 744 226.6L738.2 223.4C735.934 222.2 731.334 219.4 724.4 215C717.6 210.467 713.333 207.467 711.6 206C708.8 203.733 705.267 200.133 701 195.2C700.467 194.667 699.867 194.2 699.2 193.8C698.667 193.267 698.2 192.867 697.8 192.6C697.534 192.333 697.4 192.2 697.4 192.2C697.134 192.733 696.8 198.733 696.4 210.2C695.734 233.667 695.2 246.6 694.8 249C694.667 250.733 693.8 253.6 692.2 257.6C690.734 261.6 689.667 264 689 264.8C687.8 266.133 686.467 267.133 685 267.8C683.534 268.467 682.2 268.6 681 268.2C679.534 267.8 677.534 266.6 675 264.6C672.467 262.6 671.2 261.267 671.2 260.6C671.2 259.667 669.934 257.867 667.4 255.2C665 252.667 662.2 250.133 659 247.6C656.467 245.6 655.2 244.267 655.2 243.6C655.2 242.8 654.667 241.933 653.6 241C651.867 239.4 651.4 238.267 652.2 237.6C652.334 237.467 652.467 237.4 652.6 237.4C653.133 237.4 655.267 238.4 659 240.4C662.734 242.267 665.8 243.267 668.2 243.4C669.8 243.667 670.867 243.667 671.4 243.4C672.067 243.133 672.8 242.4 673.6 241.2C675.333 238.933 676.467 236.667 677 234.4C677.667 232 678.134 228 678.4 222.4C678.8 215.6 679.334 210.2 680 206.2C680.267 204.067 680.467 200.8 680.6 196.4C680.733 192 680.733 188 680.6 184.4C680.467 180.8 680.2 179.067 679.8 179.2C679.534 179.2 676.133 183.2 669.6 191.2C663.067 199.2 658.8 204.533 656.8 207.2C655.467 208.933 654.2 210.333 653 211.4C651.934 212.467 650.267 214.867 648 218.6C643.734 225.267 641.134 229.133 640.2 230.2C639.4 231.267 638.4 231.933 637.2 232.2C634.267 232.733 630.8 231 626.8 227C624.667 224.867 623.6 223.067 623.6 221.6C623.6 220.133 623.333 218.8 622.8 217.6C622.4 216.4 622.867 215.533 624.2 215C625.533 214.467 627.4 213.267 629.8 211.4C632.2 209.533 634.267 208.2 636 207.4C641.867 204.333 649.334 198.2 658.4 189C663.734 183.4 666.4 180.533 666.4 180.4C666.4 180.267 666.267 180.2 666 180.2C665.867 180.2 665.667 180.267 665.4 180.4C665.134 180.4 664.8 180.4 664.4 180.4C663.067 180.667 662.067 180.533 661.4 180C660.734 179.467 659.667 179.067 658.2 178.8C656.867 178.4 655.467 177.467 654 176C652.534 174.533 650.867 172.4 649 169.6C647.267 166.8 646.4 165.067 646.4 164.4C646.4 162.133 648.934 160.6 654 159.8C657.067 159.4 660.134 159.8 663.2 161C666.4 162.067 668.4 163.133 669.2 164.2C670.134 165.133 670.667 167.067 670.8 170C670.934 173.067 671.134 174.6 671.4 174.6C671.8 174.6 673.467 173.2 676.4 170.4C678.4 168.4 679.6 167.067 680 166.4C680.534 165.6 680.733 164.667 680.6 163.6C680.2 161.733 680.267 158.733 680.8 154.6C681.467 150.333 681.6 145.733 681.2 140.8C680.934 137.2 680.667 135.067 680.4 134.4C680.267 133.6 679.734 133.2 678.8 133.2C677.467 133.2 676.667 133.467 676.4 134C676.134 134.533 675.134 134.933 673.4 135.2C670.734 135.733 667.2 137.133 662.8 139.4C658.534 141.667 656.133 143.467 655.6 144.8C654.8 146 654 146.933 653.2 147.6C652.534 148 651.667 148.267 650.6 148.4C649.533 148.533 648.533 148.6 647.6 148.6C646.8 148.467 646.4 148.2 646.4 147.8C646.4 147.133 646.067 146.8 645.4 146.8C644.734 146.8 643.267 145.733 641 143.6C638.734 141.467 637.267 139.867 636.6 138.8C635.933 137.6 636.134 136.333 637.2 135C638.4 133.533 640.267 132.333 642.8 131.4C645.334 130.333 650.134 128.733 657.2 126.6C664.4 124.467 669.734 123 673.2 122.2L679.2 121C680.667 120.733 681.534 120.133 681.8 119.2C682.067 118.533 682.267 113.133 682.4 103C682.534 92.8667 682.467 87.1333 682.2 85.8Z" fill="#1C333A"/>
<path d="M530 212.8C529.2 210.4 534.733 211 546.6 214.6C548.067 215 549.667 215.533 551.4 216.2C555.933 217.533 558.467 218.133 559 218C559.667 217.867 560.4 218.267 561.2 219.2C562.533 220.267 564.333 221.533 566.6 223C568.867 224.333 570.4 225 571.2 225C572.133 225 573.333 225.933 574.8 227.8C576.267 229.533 577.467 230.4 578.4 230.4C578.8 230.4 579.133 230.533 579.4 230.8C579.667 230.933 579.733 231.2 579.6 231.6C579.467 232.267 579 234.4 578.2 238C577.533 241.6 576.4 244.533 574.8 246.8C573.333 249.067 572.6 250.467 572.6 251C572.6 251.667 571.667 252.6 569.8 253.8C568.067 255.133 566.6 255.8 565.4 255.8C563.933 255.8 562.133 254.8 560 252.8C557.867 250.8 556.133 248.467 554.8 245.8C553.333 243 551.4 240.4 549 238C546.733 235.467 545.267 233.8 544.6 233C544.067 232.2 542.733 231 540.6 229.4C538.333 227.667 536.067 225.733 533.8 223.6C531.533 221.333 530.067 219.6 529.4 218.4C528.6 216.933 528.6 215.8 529.4 215C530.2 214.2 530.4 213.467 530 212.8ZM429 147.8C430.467 147.4 431.6 147.333 432.4 147.6C433.2 147.733 434.4 148.4 436 149.6C439.467 151.733 441.933 153.733 443.4 155.6C444.867 157.467 446.933 160.733 449.6 165.4C450.267 166.733 450.6 168.2 450.6 169.8C450.6 171.4 450.867 172.533 451.4 173.2C452.067 173.733 452.6 175.067 453 177.2C455.533 190.133 457.2 197 458 197.8C458.533 198.467 459.6 198.133 461.2 196.8C462.933 195.467 466.533 192.067 472 186.6C480.4 178.067 484.733 174 485 174.4C485.4 174.667 484.667 176.2 482.8 179C480.933 181.667 480 183.267 480 183.8C480 184.2 478.6 187.133 475.8 192.6C473.133 198.067 471.333 201.6 470.4 203.2C469.333 204.8 468.667 206 468.4 206.8C468.133 207.6 467.533 208.8 466.6 210.4L464 215.2C462 219.333 458.667 223.533 454 227.8C451.333 230.467 449.333 232.8 448 234.8C446.8 236.8 446 237.8 445.6 237.8C445.2 237.8 445 238.533 445 240C445 241.467 444.2 243.333 442.6 245.6C441.133 247.467 439.267 249.067 437 250.4C434.867 251.733 433 252.467 431.4 252.6C429.933 252.733 429 252.133 428.6 250.8C428.333 249.867 427.4 248.133 425.8 245.6C424.333 242.933 423.6 241.133 423.6 240.2C423.6 239.267 423.2 238.133 422.4 236.8C421.733 235.467 421.733 233.867 422.4 232C423.2 230 423.4 228.6 423 227.8C422.733 227 423.133 226.267 424.2 225.6C425.4 224.933 426 224 426 222.8C426 221.867 426.267 221.333 426.8 221.2C427.333 220.933 428.533 220.867 430.4 221C431.733 221 433.267 220.333 435 219C436.867 217.667 437.8 216.533 437.8 215.6C437.8 214.667 438.2 213.667 439 212.6C439.933 211.133 440.4 206.467 440.4 198.6C440.4 190.733 439.8 184.2 438.6 179C437.4 173.4 436.333 169.267 435.4 166.6C434.467 163.8 433.067 160.867 431.2 157.8C428.667 154.2 427.4 152.133 427.4 151.6C427.267 149.333 427.8 148.067 429 147.8ZM472.6 127C473 126.067 473.533 125.533 474.2 125.4C474.867 125.133 476.667 125 479.6 125C483.6 125.133 486 125.533 486.8 126.2C487.733 126.867 490.133 128.067 494 129.8C497.867 131.667 500.333 133.2 501.4 134.4C502.467 135.467 503 137.267 503 139.8C503 142.6 502.667 144.6 502 145.8C501.333 146.867 499.933 148.067 497.8 149.4C495.667 150.6 494.067 151.2 493 151.2C491.933 151.2 490.533 150.8 488.8 150C487.067 149.2 486.2 148.6 486.2 148.2C486.2 147.8 484.533 146.467 481.2 144.2C477.867 141.933 475.6 140.067 474.4 138.6C473.333 136.867 472.533 134.867 472 132.6C471.6 130.333 471.8 128.467 472.6 127ZM533.2 122.2C534.933 122.067 536.133 122.067 536.8 122.2C537.6 122.2 538.467 122.733 539.4 123.8C540.6 125.133 541.533 125.8 542.2 125.8C543 125.8 545.533 127.667 549.8 131.4L552 133.4L550.4 140.6C549.333 145.267 548.6 148.8 548.2 151.2C547.8 153.6 546.733 156.933 545 161.2C543.4 165.333 542.333 168.333 541.8 170.2C540.2 174.867 537.267 180.667 533 187.6C530.867 190.933 529.8 192.8 529.8 193.2C529.8 193.6 529.4 194.133 528.6 194.8C527.8 195.333 527.4 196.133 527.4 197.2C527.4 198.133 526.6 199.333 525 200.8C523.533 202.267 522.8 203.4 522.8 204.2C522.8 205.133 518.867 209.2 511 216.4C503.267 223.6 498.867 227.2 497.8 227.2C497.667 227.2 496.333 228.133 493.8 230C489.933 232.667 484.8 235.667 478.4 239C472.133 242.333 468.467 244 467.4 244C466.6 244 464.4 244.533 460.8 245.6C457.333 246.667 455.533 247.133 455.4 247C455.4 246.867 455.733 246.533 456.4 246C457.067 245.6 457.867 245.067 458.8 244.4C459.867 243.6 461 242.8 462.2 242C471.667 235.867 479.133 230.333 484.6 225.4C490.2 220.333 495.267 214.733 499.8 208.6C503.8 203.267 507.867 196.333 512 187.8C516.133 179.267 519.133 171.733 521 165.2C526.333 146 529.067 134.667 529.2 131.2C529.2 130 529.533 128.933 530.2 128C530.867 126.933 531.2 125.8 531.2 124.6C531.2 123.267 531.867 122.467 533.2 122.2Z" fill="#1C333A"/>
<path d="M324.8 161.8C324.8 160.467 325.267 159.467 326.2 158.8C327.133 158 327.6 157.6 327.6 157.6C327.733 157.6 329.267 158.867 332.2 161.4L336.4 165.4V171C336.267 174.867 335.8 178.067 335 180.6C334.2 183 333.8 184.8 333.8 186C333.8 187.2 333.067 189.933 331.6 194.2L329.4 200.4L334.6 205.2C340.6 210.8 347.467 215.333 355.2 218.8C372.933 227.067 384 232.467 388.4 235C389.733 235.667 390.6 236.267 391 236.8C391.4 237.333 391.6 238.333 391.6 239.8C391.733 241.533 391.533 242.6 391 243C390.6 243.267 388.733 243.667 385.4 244.2L380 245.2C378.267 245.467 376.933 246.067 376 247C375.067 248.067 374.2 248.6 373.4 248.6C372.733 248.6 372.4 248.867 372.4 249.4C372.4 249.933 371.8 250.533 370.6 251.2C369.533 251.867 367.533 251.467 364.6 250C361.667 248.533 359.867 247.8 359.2 247.8C357.733 247.8 352.933 245.333 344.8 240.4C338 236 331.4 230.533 325 224C321.667 220.533 319.733 218.8 319.2 218.8C318.8 218.8 318.067 219.533 317 221C315.267 223.933 312 227.4 307.2 231.4C302.533 235.267 298.133 238.2 294 240.2C292.8 240.867 289.2 242.067 283.2 243.8C277.2 245.4 273.533 246.2 272.2 246.2C270.867 246.2 272 245.067 275.6 242.8C276.267 242.4 277.067 241.933 278 241.4C281.6 239.267 286.467 235.2 292.6 229.2C298.733 223.2 303.133 218.133 305.8 214C309 209.2 310.733 206.333 311 205.4C311.267 204.333 310.6 202.467 309 199.8C307.133 196.6 305.933 194.4 305.4 193.2C301.8 185.067 299.6 180.267 298.8 178.8C298.4 178 298.2 176.533 298.2 174.4C298.2 170.4 299.733 169.6 302.8 172C304.4 173.067 305.333 173.6 305.6 173.6C306 173.6 307.467 175 310 177.8C312.533 180.467 314.267 182.6 315.2 184.2C316.533 185.933 317.467 186.867 318 187C318.4 187.133 319.133 185.533 320.2 182.2C321.4 178.733 322.467 174.933 323.4 170.8C324.333 166.667 324.8 163.667 324.8 161.8ZM311.8 96.8C313.4 96.2666 315.133 96.6 317 97.8C319 98.8666 320.667 100.467 322 102.6C323.2 104.467 323.867 106.4 324 108.4C324.133 110.267 323.733 113.267 322.8 117.4C322 121.667 321.6 124.467 321.6 125.8C321.6 127.133 320.533 130 318.4 134.4C316.267 138.667 315.2 140.867 315.2 141C315.333 141.133 318.267 140.267 324 138.4L337 134.4C340.067 133.6 341.733 132.8 342 132C342.267 131.2 343 131.2 344.2 132C345.533 132.8 347.867 133.333 351.2 133.6C354.133 134 355.933 134.533 356.6 135.2C357.4 135.733 358 137 358.4 139C358.533 140.6 358.267 142.867 357.6 145.8C356.933 148.6 356.2 150.2 355.4 150.6C354.867 150.867 351.8 151.133 346.2 151.4C341.533 151.533 336.8 152.267 332 153.6C327.2 154.8 323.933 156.133 322.2 157.6C320.733 158.533 319.533 158.933 318.6 158.8C317.8 158.667 316.533 157.8 314.8 156.2C312.667 154.333 311.267 153.4 310.6 153.4C310.067 153.4 309.267 154.467 308.2 156.6C306.867 159.533 303.467 163.133 298 167.4C296.4 168.467 294.733 169.733 293 171.2C291.267 172.667 288.733 174.733 285.4 177.4C279.933 181.4 277.133 183.267 277 183C277 182.867 277.2 182.467 277.6 181.8C277.867 180.867 277.933 180.4 277.8 180.4C277.267 180.267 275.933 181.067 273.8 182.8L271.6 184.4V204.4C271.6 217.733 271.133 225.667 270.2 228.2C269.4 230.6 269 232.2 269 233C269 233.933 267.867 236.2 265.6 239.8C263.333 243.267 261.133 246.067 259 248.2C254.467 252.733 249.933 254.6 245.4 253.8C241.667 253.133 239.533 251.467 239 248.8C238.6 247.333 237.267 245.533 235 243.4C230.333 238.867 227.133 235.6 225.4 233.6C223.8 231.467 223 229.667 223 228.2C223 227.533 223.2 227.2 223.6 227.2C224 227.2 224.8 227.533 226 228.2C228.133 229 229.667 229.667 230.6 230.2C232.333 231.133 234.867 232.2 238.2 233.4C241.533 234.467 243.867 235 245.2 235C249.733 235 253.067 229.867 255.2 219.6C255.867 216.933 256.467 211.733 257 204C257.533 196.133 257.667 192 257.4 191.6C256.733 190.933 254.267 192.2 250 195.4C247.867 197 246 198.2 244.4 199C242.8 199.8 239.933 201.533 235.8 204.2L229.6 208.4L223.4 207.6C219.267 207.333 216.867 206.933 216.2 206.4C215.667 205.733 214.667 205.067 213.2 204.4C211.733 203.733 211 202.933 211 202C211 201.067 210.533 200.133 209.6 199.2C208.667 198.267 208.333 197.667 208.6 197.4C210.2 195.8 221.6 190.067 242.8 180.2C250.4 176.733 254.467 174.733 255 174.2C255.667 173.533 255.6 172.2 254.8 170.2C254.267 168.867 253.8 168.067 253.4 167.8C253 167.533 252.4 167.467 251.6 167.6C250.667 167.867 250.067 167.867 249.8 167.6C249.667 167.333 249.6 166.333 249.6 164.6C249.6 162.733 249.467 161.6 249.2 161.2C248.933 160.667 248.133 160 246.8 159.2C245.067 158.4 244 157.733 243.6 157.2C243.2 156.533 243.4 155.733 244.2 154.8C244.867 153.733 246.8 153.067 250 152.8C252.4 152.533 253.867 152.267 254.4 152C254.933 151.6 255.6 150.667 256.4 149.2C257.2 147.333 258.133 144.667 259.2 141.2C260.4 137.6 261.067 134.933 261.2 133.2C261.333 132.133 261.333 131.467 261.2 131.2C261.067 130.8 260.733 130.667 260.2 130.8C259.4 130.933 257.467 131.4 254.4 132.2C251.467 132.867 248.533 134.067 245.6 135.8C242.667 137.4 240.6 138.2 239.4 138.2C238.333 138.2 236.8 137.6 234.8 136.4C232.933 135.2 232 134.267 232 133.6C232 132.933 233.333 131.933 236 130.6C238.667 129.133 241.333 128 244 127.2L253.2 124.8C256 124 257.867 123.6 258.8 123.6C259.733 123.6 260.933 123.067 262.4 122C264.4 120.667 266.2 120 267.8 120C269.4 120 272 120.667 275.6 122C280.133 123.733 282.667 124.8 283.2 125.2C284 125.867 284.467 127.067 284.6 128.8C284.733 130.4 284.4 131.6 283.6 132.4C282.133 134.667 279.733 137.4 276.4 140.6C273.2 143.8 270.533 146.133 268.4 147.6C265.333 149.467 263.267 151.067 262.2 152.4C261.533 153.333 261.2 154 261.2 154.4C261.2 154.667 261.467 155 262 155.4C262.933 156.067 263.4 156.8 263.4 157.6C263.4 158.4 263.6 159 264 159.4C264.4 159.8 265 161.2 265.8 163.6C266.467 165.867 267.133 167.133 267.8 167.4C268.6 167.533 270.667 167.133 274 166.2C279.333 164.867 282.267 166.333 282.8 170.6C282.933 172.6 283.333 173.6 284 173.6C285.333 173.6 290.2 164 298.6 144.8C301.8 137.6 304.667 126.867 307.2 112.6C307.6 109.8 308.2 107.4 309 105.4C309.933 103.267 310.4 101.333 310.4 99.6C310.4 97.8666 310.867 96.9333 311.8 96.8Z" fill="#1C333A"/>
<path d="M124.8 161.8C124.8 160.467 125.267 159.467 126.2 158.8C127.133 158 127.6 157.6 127.6 157.6C127.733 157.6 129.267 158.867 132.2 161.4L136.4 165.4V171C136.267 174.867 135.8 178.067 135 180.6C134.2 183 133.8 184.8 133.8 186C133.8 187.2 133.067 189.933 131.6 194.2L129.4 200.4L134.6 205.2C140.6 210.8 147.467 215.333 155.2 218.8C172.933 227.067 184 232.467 188.4 235C189.733 235.667 190.6 236.267 191 236.8C191.4 237.333 191.6 238.333 191.6 239.8C191.733 241.533 191.533 242.6 191 243C190.6 243.267 188.733 243.667 185.4 244.2L180 245.2C178.267 245.467 176.933 246.067 176 247C175.067 248.067 174.2 248.6 173.4 248.6C172.733 248.6 172.4 248.867 172.4 249.4C172.4 249.933 171.8 250.533 170.6 251.2C169.533 251.867 167.533 251.467 164.6 250C161.667 248.533 159.867 247.8 159.2 247.8C157.733 247.8 152.933 245.333 144.8 240.4C138 236 131.4 230.533 125 224C121.667 220.533 119.733 218.8 119.2 218.8C118.8 218.8 118.067 219.533 117 221C115.267 223.933 112 227.4 107.2 231.4C102.533 235.267 98.1335 238.2 94.0001 240.2C92.8001 240.867 89.2001 242.067 83.2001 243.8C77.2001 245.4 73.5335 246.2 72.2001 246.2C70.8668 246.2 72.0001 245.067 75.6001 242.8C76.2668 242.4 77.0668 241.933 78.0001 241.4C81.6001 239.267 86.4668 235.2 92.6001 229.2C98.7335 223.2 103.133 218.133 105.8 214C109 209.2 110.733 206.333 111 205.4C111.267 204.333 110.6 202.467 109 199.8C107.133 196.6 105.933 194.4 105.4 193.2C101.8 185.067 99.6001 180.267 98.8001 178.8C98.4001 178 98.2001 176.533 98.2001 174.4C98.2001 170.4 99.7335 169.6 102.8 172C104.4 173.067 105.333 173.6 105.6 173.6C106 173.6 107.467 175 110 177.8C112.533 180.467 114.267 182.6 115.2 184.2C116.533 185.933 117.467 186.867 118 187C118.4 187.133 119.133 185.533 120.2 182.2C121.4 178.733 122.467 174.933 123.4 170.8C124.333 166.667 124.8 163.667 124.8 161.8ZM111.8 96.8C113.4 96.2666 115.133 96.6 117 97.8C119 98.8666 120.667 100.467 122 102.6C123.2 104.467 123.867 106.4 124 108.4C124.133 110.267 123.733 113.267 122.8 117.4C122 121.667 121.6 124.467 121.6 125.8C121.6 127.133 120.533 130 118.4 134.4C116.267 138.667 115.2 140.867 115.2 141C115.333 141.133 118.267 140.267 124 138.4L137 134.4C140.067 133.6 141.733 132.8 142 132C142.267 131.2 143 131.2 144.2 132C145.533 132.8 147.867 133.333 151.2 133.6C154.133 134 155.933 134.533 156.6 135.2C157.4 135.733 158 137 158.4 139C158.533 140.6 158.267 142.867 157.6 145.8C156.933 148.6 156.2 150.2 155.4 150.6C154.867 150.867 151.8 151.133 146.2 151.4C141.533 151.533 136.8 152.267 132 153.6C127.2 154.8 123.933 156.133 122.2 157.6C120.733 158.533 119.533 158.933 118.6 158.8C117.8 158.667 116.533 157.8 114.8 156.2C112.667 154.333 111.267 153.4 110.6 153.4C110.067 153.4 109.267 154.467 108.2 156.6C106.867 159.533 103.467 163.133 98.0001 167.4C96.4001 168.467 94.7335 169.733 93.0001 171.2C91.2668 172.667 88.7335 174.733 85.4001 177.4C79.9335 181.4 77.1335 183.267 77.0001 183C77.0001 182.867 77.2001 182.467 77.6001 181.8C77.8668 180.867 77.9335 180.4 77.8001 180.4C77.2668 180.267 75.9335 181.067 73.8001 182.8L71.6001 184.4V204.4C71.6001 217.733 71.1335 225.667 70.2001 228.2C69.4001 230.6 69.0001 232.2 69.0001 233C69.0001 233.933 67.8668 236.2 65.6001 239.8C63.3335 243.267 61.1335 246.067 59.0001 248.2C54.4668 252.733 49.9335 254.6 45.4001 253.8C41.6668 253.133 39.5335 251.467 39.0001 248.8C38.6001 247.333 37.2668 245.533 35.0001 243.4C30.3335 238.867 27.1335 235.6 25.4001 233.6C23.8001 231.467 23.0001 229.667 23.0001 228.2C23.0001 227.533 23.2001 227.2 23.6001 227.2C24.0001 227.2 24.8001 227.533 26.0001 228.2C28.1335 229 29.6668 229.667 30.6001 230.2C32.3335 231.133 34.8668 232.2 38.2001 233.4C41.5335 234.467 43.8668 235 45.2001 235C49.7335 235 53.0668 229.867 55.2001 219.6C55.8668 216.933 56.4668 211.733 57.0001 204C57.5335 196.133 57.6668 192 57.4001 191.6C56.7335 190.933 54.2668 192.2 50.0001 195.4C47.8668 197 46.0001 198.2 44.4001 199C42.8001 199.8 39.9335 201.533 35.8001 204.2L29.6001 208.4L23.4001 207.6C19.2668 207.333 16.8668 206.933 16.2001 206.4C15.6668 205.733 14.6668 205.067 13.2001 204.4C11.7335 203.733 11.0001 202.933 11.0001 202C11.0001 201.067 10.5335 200.133 9.60012 199.2C8.66679 198.267 8.33345 197.667 8.60012 197.4C10.2001 195.8 21.6001 190.067 42.8001 180.2C50.4001 176.733 54.4668 174.733 55.0001 174.2C55.6668 173.533 55.6001 172.2 54.8001 170.2C54.2668 168.867 53.8001 168.067 53.4001 167.8C53.0001 167.533 52.4001 167.467 51.6001 167.6C50.6668 167.867 50.0668 167.867 49.8001 167.6C49.6668 167.333 49.6001 166.333 49.6001 164.6C49.6001 162.733 49.4668 161.6 49.2001 161.2C48.9335 160.667 48.1335 160 46.8001 159.2C45.0668 158.4 44.0001 157.733 43.6001 157.2C43.2001 156.533 43.4001 155.733 44.2001 154.8C44.8668 153.733 46.8001 153.067 50.0001 152.8C52.4001 152.533 53.8668 152.267 54.4001 152C54.9335 151.6 55.6001 150.667 56.4001 149.2C57.2001 147.333 58.1335 144.667 59.2001 141.2C60.4001 137.6 61.0668 134.933 61.2001 133.2C61.3335 132.133 61.3335 131.467 61.2001 131.2C61.0668 130.8 60.7335 130.667 60.2001 130.8C59.4001 130.933 57.4668 131.4 54.4001 132.2C51.4668 132.867 48.5335 134.067 45.6001 135.8C42.6668 137.4 40.6001 138.2 39.4001 138.2C38.3335 138.2 36.8001 137.6 34.8001 136.4C32.9335 135.2 32.0001 134.267 32.0001 133.6C32.0001 132.933 33.3335 131.933 36.0001 130.6C38.6668 129.133 41.3335 128 44.0001 127.2L53.2001 124.8C56.0001 124 57.8668 123.6 58.8001 123.6C59.7335 123.6 60.9335 123.067 62.4001 122C64.4001 120.667 66.2001 120 67.8001 120C69.4001 120 72.0001 120.667 75.6001 122C80.1335 123.733 82.6668 124.8 83.2001 125.2C84.0001 125.867 84.4668 127.067 84.6001 128.8C84.7335 130.4 84.4001 131.6 83.6001 132.4C82.1335 134.667 79.7335 137.4 76.4001 140.6C73.2001 143.8 70.5335 146.133 68.4001 147.6C65.3335 149.467 63.2668 151.067 62.2001 152.4C61.5335 153.333 61.2001 154 61.2001 154.4C61.2001 154.667 61.4668 155 62.0001 155.4C62.9335 156.067 63.4001 156.8 63.4001 157.6C63.4001 158.4 63.6001 159 64.0001 159.4C64.4001 159.8 65.0001 161.2 65.8001 163.6C66.4668 165.867 67.1335 167.133 67.8001 167.4C68.6001 167.533 70.6668 167.133 74.0001 166.2C79.3335 164.867 82.2668 166.333 82.8001 170.6C82.9335 172.6 83.3335 173.6 84.0001 173.6C85.3335 173.6 90.2001 164 98.6001 144.8C101.8 137.6 104.667 126.867 107.2 112.6C107.6 109.8 108.2 107.4 109 105.4C109.933 103.267 110.4 101.333 110.4 99.6C110.4 97.8666 110.867 96.9333 111.8 96.8Z" fill="#1C333A"/>
<path d="M106.851 73H102.627V47.272H106.851V73ZM111.843 40.504V43.912H97.587V40.504H111.843Z" fill="#1C333A"/>
<path d="M96.6881 73H77.8721V70.216L91.6961 50.536H78.6881V47.272H96.3521V50.44L82.7201 69.736H96.6881V73Z" fill="#1C333A"/>
<path d="M506.773 73H502.549V47.272H506.773V73ZM502.453 43.912C502.037 43.176 501.477 42.392 500.773 41.56C500.069 40.696 499.333 39.848 498.565 39.016C497.797 38.184 497.125 37.464 496.549 36.856V36.232H499.429C500.261 36.776 501.125 37.432 502.021 38.2C502.917 38.968 503.765 39.784 504.565 40.648C505.429 39.784 506.309 38.968 507.205 38.2C508.101 37.432 508.965 36.776 509.797 36.232H512.773V36.856C512.165 37.464 511.461 38.184 510.661 39.016C509.893 39.848 509.141 40.696 508.405 41.56C507.701 42.392 507.157 43.176 506.773 43.912H502.453Z" fill="#1C333A"/>
<path d="M474.048 47.272H478.56L484.128 61.912C484.448 62.776 484.736 63.608 484.992 64.408C485.28 65.208 485.536 65.992 485.76 66.76C485.984 67.496 486.16 68.216 486.288 68.92H486.48C486.672 68.12 486.976 67.08 487.392 65.8C487.808 64.488 488.24 63.176 488.688 61.864L493.92 47.272H498.48L487.392 76.552C486.784 78.152 486.064 79.544 485.232 80.728C484.432 81.944 483.44 82.872 482.256 83.512C481.104 84.184 479.696 84.52 478.032 84.52C477.264 84.52 476.592 84.472 476.016 84.376C475.44 84.312 474.944 84.232 474.528 84.136V80.776C474.88 80.84 475.296 80.904 475.776 80.968C476.288 81.032 476.816 81.064 477.36 81.064C478.352 81.064 479.2 80.872 479.904 80.488C480.64 80.136 481.264 79.608 481.776 78.904C482.288 78.232 482.72 77.432 483.072 76.504L484.416 73.096L474.048 47.272Z" fill="#1C333A"/>
<path d="M297.851 73H293.627V47.272H297.851V73ZM302.843 40.504V43.912H288.587V40.504H302.843Z" fill="#1C333A"/>
<path d="M287.688 73H268.872V70.216L282.696 50.536H269.688V47.272H287.352V50.44L273.72 69.736H287.688V73Z" fill="#1C333A"/>
<path fill-rule="evenodd" clip-rule="evenodd" d="M594 287L30.0001 287V282L594 282V287Z" fill="#1C333A"/>
</svg>
